<svg version="1.0" preserveAspectRatio="xMidYMid meet" height="500" viewBox="0 0 375 374.999991" zoomAndPan="magnify" width="500" xmlns:xlink="http://www.w3.org/1999/xlink" xmlns="http://www.w3.org/2000/svg"><defs><g></g><clipPath id="0c13dd6833"><path clip-rule="nonzero" d="M 86.746094 57.105469 L 182.746094 57.105469 L 182.746094 155 L 86.746094 155 Z M 86.746094 57.105469"></path></clipPath><clipPath id="3cdc709256"><path clip-rule="nonzero" d="M 192.726562 56.765625 L 271 56.765625 L 271 155 L 192.726562 155 Z M 192.726562 56.765625"></path></clipPath><clipPath id="1b3e354d4e"><path clip-rule="nonzero" d="M 245 112 L 287.960938 112 L 287.960938 155 L 245 155 Z M 245 112"></path></clipPath><clipPath id="4a6999c9c1"><path clip-rule="nonzero" d="M 107.238281 166.273438 L 182.988281 166.273438 L 182.988281 246.523438 L 107.238281 246.523438 Z M 107.238281 166.273438"></path></clipPath><clipPath id="4b2f1a4301"><path clip-rule="nonzero" d="M 192.726562 166.296875 L 221 166.296875 L 221 239 L 192.726562 239 Z M 192.726562 166.296875"></path></clipPath><clipPath id="b6fb8091d9"><path clip-rule="nonzero" d="M 205 166.296875 L 254 166.296875 L 254 246.546875 L 205 246.546875 Z M 205 166.296875"></path></clipPath><clipPath id="d8fa22bac7"><path clip-rule="nonzero" d="M 248 166.296875 L 266.976562 166.296875 L 266.976562 246.546875 L 248 246.546875 Z M 248 166.296875"></path></clipPath><clipPath id="be178c07d3"><path clip-rule="nonzero" d="M 246 234 L 259 234 L 259 246.546875 L 246 246.546875 Z M 246 234"></path></clipPath></defs><rect fill-opacity="1" height="449.999989" y="-37.499999" fill="#ffffff" width="450" x="-37.5"></rect><rect fill-opacity="1" height="449.999989" y="-37.499999" fill="#ffffff" width="450" x="-37.5"></rect><path fill-rule="nonzero" fill-opacity="1" d="M 127.574219 103.769531 C 133.71875 104.707031 138.761719 109.34375 143.644531 112.964844 C 138.84375 112.761719 134.042969 113.046875 129.285156 113.453125 C 127.25 111.660156 125.539062 109.34375 124.890625 106.699219 C 124.441406 105.03125 125.867188 103.527344 127.574219 103.769531 Z M 127.574219 103.769531" fill="#51c7f4"></path><path fill-rule="nonzero" fill-opacity="1" d="M 166.34375 119.675781 C 164.554688 121.832031 161.871094 123.175781 158.859375 123.175781 C 154.507812 123.175781 150.765625 120.285156 149.542969 116.300781 C 143.644531 115.609375 137.625 115.445312 131.683594 115.894531 C 134.082031 118.617188 136.933594 120.855469 139.78125 123.09375 C 139.78125 123.09375 138.925781 125.210938 138.84375 125.414062 C 138.601562 126.265625 138.4375 127.121094 138.476562 128.015625 C 138.519531 129.804688 139.167969 131.515625 140.835938 132.371094 C 143.605469 133.792969 147.550781 133.222656 149.097656 130.292969 C 150.113281 128.34375 149.300781 126.226562 148.972656 124.191406 C 155.808594 123.582031 163.945312 126.0625 169.640625 121.222656 C 168.828125 120.816406 167.199219 120.082031 166.34375 119.675781 Z M 143.886719 130.292969 C 142.464844 130.292969 141.367188 129.15625 141.367188 127.773438 C 141.367188 126.390625 142.503906 125.25 143.886719 125.25 C 145.273438 125.25 146.410156 126.390625 146.410156 127.773438 C 146.410156 129.15625 145.3125 130.292969 143.886719 130.292969 Z M 143.886719 130.292969" fill="#51c7f4"></path><g clip-path="url(#0c13dd6833)"><path fill-rule="nonzero" fill-opacity="1" d="M 182.699219 57.390625 C 181.03125 58.328125 179.363281 59.261719 177.777344 60.320312 C 162.480469 70.777344 147.144531 81.191406 131.804688 91.605469 C 116.835938 101.777344 101.824219 111.945312 86.808594 122.117188 C 86.851562 128.136719 86.851562 134.199219 86.808594 140.222656 C 93.6875 140.222656 100.5625 140.179688 107.4375 140.304688 C 107.4375 141.929688 107.4375 143.558594 107.394531 145.183594 C 107.394531 148.4375 107.394531 151.734375 107.476562 154.988281 C 111.667969 154.90625 115.859375 154.90625 120.089844 154.949219 C 119.84375 142.988281 119.4375 130.988281 119.316406 119.027344 C 118.625 115.363281 123.628906 115.691406 124.972656 113.453125 C 123.425781 110.6875 121.796875 107.878906 121.59375 104.746094 C 121.472656 103.199219 122.285156 101.695312 123.667969 101.003906 C 125.09375 100.269531 127.332031 99.90625 130.503906 101.449219 C 137.664062 103.808594 143.15625 109.382812 149.136719 113.777344 C 149.136719 113.65625 149.136719 113.535156 149.136719 113.410156 C 149.136719 108.042969 153.488281 103.6875 158.859375 103.6875 C 164.230469 103.6875 168.582031 108.042969 168.582031 113.410156 C 168.582031 114.792969 168.296875 116.097656 167.769531 117.316406 C 169.601562 118.253906 171.554688 119.027344 172.976562 120.53125 C 173.789062 121.996094 173.140625 123.746094 173.015625 125.289062 C 171.105469 135.136719 169.4375 145.0625 167.523438 154.90625 C 172.527344 154.90625 177.574219 154.90625 182.617188 154.949219 C 182.902344 122.441406 182.742188 89.898438 182.699219 57.390625 Z M 151.617188 101.898438 C 148.527344 101.898438 146.042969 99.417969 146.042969 96.324219 C 146.042969 93.273438 148.527344 90.75 151.617188 90.75 C 154.667969 90.75 157.191406 93.234375 157.191406 96.324219 C 157.191406 99.417969 154.710938 101.898438 151.617188 101.898438 Z M 165.855469 90.179688 C 163.171875 90.179688 160.976562 87.984375 160.976562 85.300781 C 160.976562 82.613281 163.171875 80.417969 165.855469 80.417969 C 168.542969 80.417969 170.738281 82.613281 170.738281 85.300781 C 170.738281 87.984375 168.582031 90.179688 165.855469 90.179688 Z M 165.855469 90.179688" fill="#51c7f4"></path></g><g clip-path="url(#3cdc709256)"><path fill-rule="nonzero" fill-opacity="1" d="M 192.21875 63.601562 C 192.21875 61.324219 192.382812 59.046875 192.585938 56.765625 C 209.46875 68.320312 226.472656 79.710938 243.355469 91.308594 C 250.3125 96.027344 257.269531 100.746094 264.269531 105.464844 C 258.613281 108.433594 252.59375 110.429688 246.652344 112.789062 C 230.054688 119.378906 213.332031 125.5625 196.855469 132.476562 C 197.222656 133.210938 197.914062 134.59375 198.28125 135.324219 C 216.140625 128.125 234.164062 121.289062 252.144531 114.292969 C 258.207031 112.257812 263.902344 108.839844 270.328125 108.109375 C 267.847656 111.402344 263.578125 112.136719 259.996094 113.640625 C 247.914062 118.402344 235.789062 122.875 223.789062 127.839844 C 215.488281 130.933594 207.230469 134.1875 199.011719 137.480469 C 199.339844 138.375 199.988281 140.125 200.355469 140.980469 C 203.773438 140.042969 207.027344 138.132812 210.648438 137.96875 C 219.558594 139.433594 228.832031 136.992188 237.5 140.328125 C 237.375 142.324219 237.253906 144.277344 237.171875 146.269531 C 238.515625 146.390625 239.859375 146.511719 241.199219 146.636719 C 242.300781 149.28125 243.398438 151.925781 244.457031 154.570312 C 227.082031 154.609375 209.671875 154.691406 192.300781 154.570312 C 192.179688 124.179688 192.179688 93.871094 192.21875 63.601562 Z M 208.449219 80.769531 C 207.800781 83.171875 207.148438 85.570312 206.214844 87.890625 C 204.625 88.417969 203.039062 88.988281 201.453125 89.558594 C 203.203125 90.207031 204.953125 90.859375 206.742188 91.46875 C 207.230469 93.667969 207.800781 95.863281 208.449219 98.058594 C 209.019531 95.824219 209.425781 93.585938 209.835938 91.347656 C 212.03125 90.574219 214.269531 89.882812 216.546875 89.433594 C 214.351562 89.027344 212.195312 88.417969 210.039062 87.847656 C 209.46875 85.488281 208.980469 83.128906 208.449219 80.769531 Z M 228.261719 100.214844 C 225.742188 101.070312 223.179688 101.84375 220.65625 102.65625 C 223.097656 103.347656 225.578125 103.960938 228.058594 104.488281 C 228.996094 107.660156 229.808594 110.875 230.785156 114.007812 C 231.558594 110.792969 232.292969 107.621094 233.347656 104.488281 C 235.871094 103.960938 238.394531 103.390625 240.875 102.65625 C 238.3125 101.804688 235.707031 101.03125 233.144531 100.214844 C 232.25 97.246094 231.558594 94.234375 230.785156 91.265625 C 229.808594 94.234375 229.078125 97.246094 228.261719 100.214844 Z M 228.261719 100.214844" fill="#fab60a"></path></g><g clip-path="url(#1b3e354d4e)"><path fill-rule="nonzero" fill-opacity="1" d="M 263.859375 116.53125 C 267.195312 115.1875 270.574219 113.765625 273.828125 112.175781 C 274.277344 112.460938 275.210938 112.992188 275.660156 113.277344 C 279.890625 116 284 118.929688 288.1875 121.738281 C 288.1875 127.757812 288.1875 133.820312 288.1875 139.839844 C 281.3125 139.882812 274.480469 139.761719 267.605469 139.921875 C 267.5625 144.113281 267.644531 148.261719 267.726562 152.453125 C 267.683594 152.980469 267.5625 154.039062 267.480469 154.570312 C 261.867188 154.570312 256.210938 154.648438 250.597656 154.40625 C 249.460938 151.191406 247.914062 148.101562 247.179688 144.765625 C 247.75 143.300781 248.6875 141.957031 249.460938 140.574219 C 248.035156 139.558594 246.652344 138.539062 245.226562 137.523438 C 246.285156 135.527344 247.382812 133.578125 248.6875 131.746094 C 253.363281 126.292969 260.078125 122.796875 263.859375 116.53125 Z M 263.859375 116.53125" fill="#fab60a"></path></g><path fill-rule="nonzero" fill-opacity="1" d="M 150.03125 181.113281 C 152.433594 182.046875 155.726562 182.046875 157.152344 184.53125 C 157.234375 187.785156 153.328125 188.679688 151.210938 190.265625 C 150.722656 187.214844 150.316406 184.164062 150.03125 181.113281 Z M 150.03125 181.113281" fill="#4ac199"></path><g clip-path="url(#4a6999c9c1)"><path fill-rule="nonzero" fill-opacity="1" d="M 182.742188 181.355469 C 175.214844 182.171875 167.730469 183.148438 160.203125 183.878906 C 167.6875 181.03125 175.296875 178.507812 182.820312 175.742188 C 182.78125 174.277344 182.742188 172.8125 182.699219 171.347656 C 175.214844 174.765625 167.808594 178.507812 160.160156 181.683594 C 167.160156 176.191406 174.523438 171.144531 181.5625 165.652344 C 156.867188 165.613281 132.132812 165.652344 107.4375 165.652344 C 107.394531 175.90625 107.4375 186.15625 107.4375 196.410156 C 109.714844 193.398438 112.113281 190.265625 115.167969 187.988281 C 116.792969 186.929688 120.089844 185.304688 125.703125 184.691406 C 133.1875 183.714844 140.675781 182.617188 148.199219 181.722656 C 148.527344 184.570312 148.890625 187.378906 149.257812 190.183594 C 147.46875 190.46875 145.636719 190.753906 143.847656 191.039062 C 145.394531 194.902344 147.0625 198.890625 149.992188 201.941406 C 152.066406 204.261719 155.28125 205.605469 156.132812 208.816406 C 146.492188 208.125 139.210938 200.476562 135.914062 191.894531 C 133.390625 197.304688 133.878906 203.449219 133.109375 209.222656 C 128.714844 209.875 124.320312 210.445312 119.925781 211.015625 C 118.828125 208.695312 117.730469 206.335938 116.632812 204.015625 C 113.621094 204.425781 110.488281 204.503906 107.597656 205.480469 C 107.234375 215.734375 107.679688 225.984375 107.355469 236.238281 C 107.476562 239.65625 107.476562 243.03125 107.476562 246.449219 C 109.714844 246.449219 111.910156 246.449219 114.148438 246.488281 C 114.679688 239.453125 115.65625 232.25 119.316406 226.109375 C 115.613281 224.441406 116.144531 219.597656 117.121094 216.425781 C 118.828125 212.316406 123.667969 212.113281 127.453125 211.585938 C 130.464844 211.378906 133.960938 210.242188 136.648438 212.277344 C 139.738281 214.351562 139.902344 218.378906 140.632812 221.671875 C 139.820312 222.203125 139.007812 222.730469 138.234375 223.261719 C 144.824219 229.363281 147.671875 238.191406 150.277344 246.53125 C 161.136719 246.449219 172 246.652344 182.863281 246.449219 C 182.863281 228.019531 182.820312 209.589844 182.863281 191.160156 C 175.335938 189.332031 167.808594 187.378906 160.242188 185.75 C 167.769531 185.425781 175.335938 185.261719 182.863281 185.222656 C 182.78125 183.917969 182.742188 182.617188 182.742188 181.355469 Z M 151.210938 190.265625 C 150.722656 187.214844 150.316406 184.164062 150.03125 181.113281 C 152.433594 182.046875 155.726562 182.046875 157.152344 184.53125 C 157.191406 187.785156 153.285156 188.679688 151.210938 190.265625 Z M 151.210938 190.265625" fill="#4ac199"></path></g><g clip-path="url(#4b2f1a4301)"><path fill-rule="nonzero" fill-opacity="1" d="M 191.972656 165.734375 C 201.332031 165.53125 210.730469 165.53125 220.085938 165.695312 C 218.867188 167.238281 217.605469 168.746094 216.464844 170.332031 C 215.203125 172.652344 214.226562 175.132812 213.292969 177.574219 C 212.761719 177.777344 211.707031 178.144531 211.21875 178.347656 C 211.257812 181.683594 211.503906 185.058594 210.851562 188.355469 C 208.042969 201.941406 205.238281 215.570312 202.550781 229.199219 C 201.902344 232.496094 200.394531 235.546875 198.929688 238.558594 C 196.570312 238.476562 194.171875 238.351562 191.8125 238.273438 C 192.300781 214.066406 191.933594 189.898438 191.972656 165.734375 Z M 191.972656 165.734375" fill="#f02e2c"></path></g><g clip-path="url(#b6fb8091d9)"><path fill-rule="nonzero" fill-opacity="1" d="M 219.84375 171.023438 C 221.875 168.785156 223.949219 165.53125 227.367188 165.613281 C 232.777344 165.449219 238.191406 165.695312 243.601562 165.570312 C 245.59375 167.28125 247.585938 169.03125 249.335938 170.984375 C 253 176.433594 253.933594 183.105469 253.527344 189.535156 C 253.121094 189.898438 252.308594 190.632812 251.898438 191.039062 C 251.859375 191.730469 251.820312 193.113281 251.777344 193.847656 C 251.128906 193.886719 249.824219 193.96875 249.175781 194.007812 C 248.441406 195.960938 247.914062 198.035156 246.816406 199.828125 C 243.761719 202.511719 240.019531 204.34375 237.417969 207.515625 C 229.078125 216.832031 226.230469 229.6875 225.089844 241.8125 C 224.03125 241.972656 222.976562 242.136719 221.917969 242.300781 C 221.671875 243.683594 221.386719 245.027344 221.144531 246.410156 C 219.964844 246.367188 218.785156 246.328125 217.605469 246.164062 C 217.402344 245.796875 217.035156 245.027344 216.832031 244.660156 C 216.097656 243.195312 215.367188 241.730469 214.632812 240.304688 C 211.746094 239.941406 208.859375 239.613281 205.96875 239.328125 C 205.929688 236.074219 205.644531 232.78125 206.417969 229.605469 C 209.304688 215.734375 212.070312 201.820312 214.960938 187.949219 C 215.40625 184.203125 219.152344 180.828125 217.238281 176.964844 C 217.96875 174.929688 218.824219 172.933594 219.84375 171.023438 Z M 219.84375 171.023438" fill="#f02e2c"></path></g><g clip-path="url(#d8fa22bac7)"><path fill-rule="nonzero" fill-opacity="1" d="M 248.972656 165.695312 C 255.074219 165.734375 261.257812 165.164062 267.320312 166.019531 C 267.523438 192.789062 267.320312 219.558594 267.398438 246.328125 C 265.894531 246.367188 264.390625 246.367188 262.882812 246.410156 C 263.046875 245.796875 263.332031 244.539062 263.453125 243.886719 C 265.203125 238.3125 262.355469 232.859375 257.757812 229.730469 C 258.980469 218.132812 259.589844 206.5 260.523438 194.902344 C 259.875 194.824219 258.613281 194.660156 258.003906 194.578125 C 256.539062 186.074219 257.636719 176.554688 252.0625 169.273438 C 251.085938 168.054688 250.027344 166.875 248.972656 165.695312 Z M 248.972656 165.695312" fill="#f02e2c"></path></g><g clip-path="url(#be178c07d3)"><path fill-rule="nonzero" fill-opacity="1" d="M 258.492188 240.429688 C 258.492188 240.816406 258.453125 241.199219 258.378906 241.578125 C 258.300781 241.960938 258.191406 242.328125 258.042969 242.6875 C 257.894531 243.042969 257.710938 243.382812 257.496094 243.707031 C 257.28125 244.027344 257.035156 244.324219 256.761719 244.597656 C 256.488281 244.875 256.191406 245.117188 255.867188 245.332031 C 255.546875 245.546875 255.207031 245.730469 254.847656 245.878906 C 254.492188 246.027344 254.121094 246.136719 253.742188 246.214844 C 253.363281 246.289062 252.980469 246.328125 252.589844 246.328125 C 252.203125 246.328125 251.820312 246.289062 251.441406 246.214844 C 251.0625 246.136719 250.691406 246.027344 250.335938 245.878906 C 249.976562 245.730469 249.636719 245.546875 249.3125 245.332031 C 248.992188 245.117188 248.695312 244.875 248.421875 244.597656 C 248.148438 244.324219 247.902344 244.027344 247.6875 243.707031 C 247.472656 243.382812 247.289062 243.042969 247.140625 242.6875 C 246.992188 242.328125 246.882812 241.960938 246.804688 241.578125 C 246.730469 241.199219 246.691406 240.816406 246.691406 240.429688 C 246.691406 240.039062 246.730469 239.65625 246.804688 239.277344 C 246.882812 238.898438 246.992188 238.527344 247.140625 238.171875 C 247.289062 237.8125 247.472656 237.472656 247.6875 237.152344 C 247.902344 236.828125 248.148438 236.53125 248.421875 236.257812 C 248.695312 235.984375 248.992188 235.738281 249.3125 235.523438 C 249.636719 235.308594 249.976562 235.125 250.335938 234.976562 C 250.691406 234.832031 251.0625 234.71875 251.441406 234.644531 C 251.820312 234.566406 252.203125 234.53125 252.589844 234.53125 C 252.980469 234.53125 253.363281 234.566406 253.742188 234.644531 C 254.121094 234.71875 254.492188 234.832031 254.847656 234.976562 C 255.207031 235.125 255.546875 235.308594 255.867188 235.523438 C 256.191406 235.738281 256.488281 235.984375 256.761719 236.257812 C 257.035156 236.53125 257.28125 236.828125 257.496094 237.152344 C 257.710938 237.472656 257.894531 237.8125 258.042969 238.171875 C 258.191406 238.527344 258.300781 238.898438 258.378906 239.277344 C 258.453125 239.65625 258.492188 240.039062 258.492188 240.429688 Z M 258.492188 240.429688" fill="#f02e2c"></path></g><g fill-opacity="1" fill="#2b8eb4"><g transform="translate(90.475383, 289.397035)"><g><path d="M 23.796875 -7.03125 L 8.59375 -7.03125 L 5.59375 0 L -0.21875 0 L 13.453125 -30.390625 L 19.015625 -30.390625 L 32.734375 0 L 26.828125 0 Z M 21.921875 -11.46875 L 16.203125 -24.75 L 10.515625 -11.46875 Z M 21.921875 -11.46875"></path></g></g></g><g fill-opacity="1" fill="#2b8eb4"><g transform="translate(125.167431, 289.397035)"><g><path d="M 4.078125 -30.390625 L 9.71875 -30.390625 L 9.71875 -4.78125 L 25.625 -4.78125 L 25.625 0 L 4.078125 0 Z M 4.078125 -30.390625"></path></g></g></g><g fill-opacity="1" fill="#2b8eb4"><g transform="translate(153.346619, 289.397035)"><g><path d="M 10.25 -25.625 L 0.171875 -25.625 L 0.171875 -30.390625 L 25.96875 -30.390625 L 25.96875 -25.625 L 15.890625 -25.625 L 15.890625 0 L 10.25 0 Z M 10.25 -25.625"></path></g></g></g><g fill-opacity="1" fill="#2b8eb4"><g transform="translate(181.656059, 289.397035)"><g><path d="M 17.15625 0.4375 C 12.957031 0.4375 9.6875 -0.738281 7.34375 -3.09375 C 5 -5.457031 3.828125 -8.84375 3.828125 -13.25 L 3.828125 -30.390625 L 9.46875 -30.390625 L 9.46875 -13.453125 C 9.46875 -7.492188 12.039062 -4.515625 17.1875 -4.515625 C 22.3125 -4.515625 24.875 -7.492188 24.875 -13.453125 L 24.875 -30.390625 L 30.4375 -30.390625 L 30.4375 -13.25 C 30.4375 -8.84375 29.269531 -5.457031 26.9375 -3.09375 C 24.613281 -0.738281 21.351562 0.4375 17.15625 0.4375 Z M 17.15625 0.4375"></path></g></g></g><g fill-opacity="1" fill="#2b8eb4"><g transform="translate(218.084885, 289.397035)"><g><path d="M 23.96875 0 L 17.765625 -8.90625 C 17.503906 -8.875 17.113281 -8.859375 16.59375 -8.859375 L 9.71875 -8.859375 L 9.71875 0 L 4.078125 0 L 4.078125 -30.390625 L 16.59375 -30.390625 C 19.21875 -30.390625 21.507812 -29.957031 23.46875 -29.09375 C 25.425781 -28.226562 26.925781 -26.984375 27.96875 -25.359375 C 29.007812 -23.734375 29.53125 -21.804688 29.53125 -19.578125 C 29.53125 -17.296875 28.972656 -15.328125 27.859375 -13.671875 C 26.742188 -12.023438 25.144531 -10.796875 23.0625 -9.984375 L 30.046875 0 Z M 23.84375 -19.578125 C 23.84375 -21.523438 23.203125 -23.019531 21.921875 -24.0625 C 20.648438 -25.101562 18.785156 -25.625 16.328125 -25.625 L 9.71875 -25.625 L 9.71875 -13.5 L 16.328125 -13.5 C 18.785156 -13.5 20.648438 -14.023438 21.921875 -15.078125 C 23.203125 -16.140625 23.84375 -17.640625 23.84375 -19.578125 Z M 23.84375 -19.578125"></path></g></g></g><g fill-opacity="1" fill="#2b8eb4"><g transform="translate(251.995398, 289.397035)"><g><path d="M 23.796875 -7.03125 L 8.59375 -7.03125 L 5.59375 0 L -0.21875 0 L 13.453125 -30.390625 L 19.015625 -30.390625 L 32.734375 0 L 26.828125 0 Z M 21.921875 -11.46875 L 16.203125 -24.75 L 10.515625 -11.46875 Z M 21.921875 -11.46875"></path></g></g></g><g fill-opacity="1" fill="#f02e2c"><g transform="translate(89.103551, 314.324196)"><g><path d="M 2.5625 0 L 1.1875 0 L 1.1875 -11.453125 L 8.59375 -11.453125 L 8.59375 -10.203125 L 2.5625 -10.203125 L 2.5625 -6.359375 L 7.890625 -6.359375 L 7.890625 -5.140625 L 2.5625 -5.140625 Z M 2.5625 0"></path></g></g></g><g fill-opacity="1" fill="#f02e2c"><g transform="translate(101.880188, 314.324196)"><g><path d="M 7.03125 -5.09375 L 9.234375 0 L 7.71875 0 L 5.6875 -4.828125 L 2.5625 -4.828125 L 2.5625 0 L 1.1875 0 L 1.1875 -11.453125 L 5.453125 -11.453125 C 6.554688 -11.453125 7.4375 -11.179688 8.09375 -10.640625 C 8.75 -10.097656 9.078125 -9.28125 9.078125 -8.1875 C 9.078125 -7.414062 8.894531 -6.765625 8.53125 -6.234375 C 8.175781 -5.703125 7.675781 -5.320312 7.03125 -5.09375 Z M 2.5625 -6.0625 L 5.265625 -6.0625 C 6.054688 -6.0625 6.660156 -6.238281 7.078125 -6.59375 C 7.503906 -6.945312 7.71875 -7.460938 7.71875 -8.140625 C 7.71875 -8.796875 7.5 -9.300781 7.0625 -9.65625 C 6.632812 -10.019531 6.035156 -10.203125 5.265625 -10.203125 L 2.5625 -10.203125 Z M 2.5625 -6.0625"></path></g></g></g><g fill-opacity="1" fill="#f02e2c"><g transform="translate(115.542508, 314.324196)"><g><path d="M 1.609375 0 L 0.203125 0 L 4.421875 -11.453125 L 5.984375 -11.453125 L 10.203125 0 L 8.8125 0 L 7.8125 -2.8125 L 2.609375 -2.8125 Z M 5.203125 -10.046875 L 3.078125 -4.046875 L 7.34375 -4.046875 Z M 5.203125 -10.046875"></path></g></g></g><g fill-opacity="1" fill="#f02e2c"><g transform="translate(129.71522, 314.324196)"><g><path d="M 2.5625 0 L 1.1875 0 L 1.1875 -11.453125 L 3.203125 -11.453125 L 8.34375 -1.375 L 8.34375 -11.453125 L 9.71875 -11.453125 L 9.71875 0 L 7.703125 0 L 2.5625 -10.046875 Z M 2.5625 0"></path></g></g></g><g fill-opacity="1" fill="#f02e2c"><g transform="translate(144.383319, 314.324196)"><g><path d="M 6.03125 0.15625 C 5.132812 0.15625 4.351562 0 3.6875 -0.3125 C 3.019531 -0.632812 2.46875 -1.070312 2.03125 -1.625 C 1.59375 -2.175781 1.269531 -2.800781 1.0625 -3.5 C 0.851562 -4.207031 0.75 -4.953125 0.75 -5.734375 C 0.75 -6.515625 0.851562 -7.253906 1.0625 -7.953125 C 1.269531 -8.660156 1.59375 -9.285156 2.03125 -9.828125 C 2.46875 -10.378906 3.019531 -10.8125 3.6875 -11.125 C 4.351562 -11.445312 5.132812 -11.609375 6.03125 -11.609375 C 6.882812 -11.609375 7.632812 -11.46875 8.28125 -11.1875 C 8.925781 -10.90625 9.445312 -10.515625 9.84375 -10.015625 C 10.25 -9.515625 10.503906 -8.9375 10.609375 -8.28125 L 9.109375 -8.28125 C 8.972656 -8.925781 8.628906 -9.4375 8.078125 -9.8125 C 7.523438 -10.1875 6.832031 -10.375 6 -10.375 C 5.15625 -10.375 4.441406 -10.171875 3.859375 -9.765625 C 3.285156 -9.367188 2.851562 -8.820312 2.5625 -8.125 C 2.269531 -7.425781 2.125 -6.628906 2.125 -5.734375 C 2.125 -4.847656 2.269531 -4.050781 2.5625 -3.34375 C 2.851562 -2.632812 3.285156 -2.078125 3.859375 -1.671875 C 4.441406 -1.273438 5.15625 -1.078125 6 -1.078125 C 6.832031 -1.078125 7.523438 -1.273438 8.078125 -1.671875 C 8.628906 -2.078125 8.972656 -2.675781 9.109375 -3.46875 L 10.609375 -3.46875 C 10.429688 -2.351562 9.941406 -1.46875 9.140625 -0.8125 C 8.347656 -0.164062 7.3125 0.15625 6.03125 0.15625 Z M 6.03125 0.15625"></path></g></g></g><g fill-opacity="1" fill="#f02e2c"><g transform="translate(159.366669, 314.324196)"><g><path d="M 8.59375 0 L 1.1875 0 L 1.1875 -11.453125 L 8.59375 -11.453125 L 8.59375 -10.203125 L 2.5625 -10.203125 L 2.5625 -6.359375 L 7.890625 -6.359375 L 7.890625 -5.140625 L 2.5625 -5.140625 L 2.5625 -1.25 L 8.59375 -1.25 Z M 8.59375 0"></path></g></g></g><g fill-opacity="1" fill="#f02e2c"><g transform="translate(172.368488, 314.324196)"><g></g></g></g><g fill-opacity="1" fill="#f02e2c"><g transform="translate(180.326406, 314.324196)"><g><path d="M 2.5625 0 L 1.1875 0 L 1.1875 -11.453125 L 5.453125 -11.453125 C 6.554688 -11.453125 7.4375 -11.179688 8.09375 -10.640625 C 8.75 -10.097656 9.078125 -9.28125 9.078125 -8.1875 C 9.078125 -7.132812 8.75 -6.3125 8.09375 -5.71875 C 7.4375 -5.125 6.554688 -4.828125 5.453125 -4.828125 L 2.5625 -4.828125 Z M 2.5625 -10.203125 L 2.5625 -6.0625 L 5.265625 -6.0625 C 6.054688 -6.0625 6.660156 -6.238281 7.078125 -6.59375 C 7.503906 -6.945312 7.71875 -7.460938 7.71875 -8.140625 C 7.71875 -8.796875 7.5 -9.300781 7.0625 -9.65625 C 6.632812 -10.019531 6.035156 -10.203125 5.265625 -10.203125 Z M 2.5625 -10.203125"></path></g></g></g><g fill-opacity="1" fill="#f02e2c"><g transform="translate(193.6885, 314.324196)"><g><path d="M 7.03125 -5.09375 L 9.234375 0 L 7.71875 0 L 5.6875 -4.828125 L 2.5625 -4.828125 L 2.5625 0 L 1.1875 0 L 1.1875 -11.453125 L 5.453125 -11.453125 C 6.554688 -11.453125 7.4375 -11.179688 8.09375 -10.640625 C 8.75 -10.097656 9.078125 -9.28125 9.078125 -8.1875 C 9.078125 -7.414062 8.894531 -6.765625 8.53125 -6.234375 C 8.175781 -5.703125 7.675781 -5.320312 7.03125 -5.09375 Z M 2.5625 -6.0625 L 5.265625 -6.0625 C 6.054688 -6.0625 6.660156 -6.238281 7.078125 -6.59375 C 7.503906 -6.945312 7.71875 -7.460938 7.71875 -8.140625 C 7.71875 -8.796875 7.5 -9.300781 7.0625 -9.65625 C 6.632812 -10.019531 6.035156 -10.203125 5.265625 -10.203125 L 2.5625 -10.203125 Z M 2.5625 -6.0625"></path></g></g></g><g fill-opacity="1" fill="#f02e2c"><g transform="translate(207.350821, 314.324196)"><g><path d="M 6.0625 0.15625 C 5.164062 0.15625 4.382812 0 3.71875 -0.3125 C 3.050781 -0.632812 2.492188 -1.070312 2.046875 -1.625 C 1.609375 -2.175781 1.28125 -2.800781 1.0625 -3.5 C 0.851562 -4.207031 0.75 -4.953125 0.75 -5.734375 C 0.75 -6.515625 0.851562 -7.257812 1.0625 -7.96875 C 1.28125 -8.675781 1.609375 -9.300781 2.046875 -9.84375 C 2.492188 -10.382812 3.050781 -10.8125 3.71875 -11.125 C 4.382812 -11.445312 5.164062 -11.609375 6.0625 -11.609375 C 6.976562 -11.609375 7.769531 -11.445312 8.4375 -11.125 C 9.101562 -10.8125 9.65625 -10.382812 10.09375 -9.84375 C 10.539062 -9.300781 10.867188 -8.675781 11.078125 -7.96875 C 11.296875 -7.257812 11.40625 -6.515625 11.40625 -5.734375 C 11.40625 -4.953125 11.296875 -4.207031 11.078125 -3.5 C 10.867188 -2.800781 10.539062 -2.175781 10.09375 -1.625 C 9.65625 -1.070312 9.101562 -0.632812 8.4375 -0.3125 C 7.769531 0 6.976562 0.15625 6.0625 0.15625 Z M 6.0625 -1.09375 C 6.925781 -1.09375 7.648438 -1.289062 8.234375 -1.6875 C 8.828125 -2.09375 9.273438 -2.644531 9.578125 -3.34375 C 9.878906 -4.050781 10.03125 -4.847656 10.03125 -5.734375 C 10.03125 -6.628906 9.878906 -7.421875 9.578125 -8.109375 C 9.273438 -8.804688 8.828125 -9.351562 8.234375 -9.75 C 7.648438 -10.15625 6.925781 -10.359375 6.0625 -10.359375 C 5.226562 -10.359375 4.515625 -10.15625 3.921875 -9.75 C 3.335938 -9.351562 2.890625 -8.804688 2.578125 -8.109375 C 2.273438 -7.421875 2.125 -6.628906 2.125 -5.734375 C 2.125 -4.847656 2.273438 -4.050781 2.578125 -3.34375 C 2.890625 -2.644531 3.335938 -2.09375 3.921875 -1.6875 C 4.515625 -1.289062 5.226562 -1.09375 6.0625 -1.09375 Z M 6.0625 -1.09375"></path></g></g></g><g fill-opacity="1" fill="#f02e2c"><g transform="translate(223.279895, 314.324196)"><g><path d="M 2.5625 0 L 1.1875 0 L 1.1875 -11.453125 L 5.453125 -11.453125 C 6.554688 -11.453125 7.4375 -11.179688 8.09375 -10.640625 C 8.75 -10.097656 9.078125 -9.28125 9.078125 -8.1875 C 9.078125 -7.132812 8.75 -6.3125 8.09375 -5.71875 C 7.4375 -5.125 6.554688 -4.828125 5.453125 -4.828125 L 2.5625 -4.828125 Z M 2.5625 -10.203125 L 2.5625 -6.0625 L 5.265625 -6.0625 C 6.054688 -6.0625 6.660156 -6.238281 7.078125 -6.59375 C 7.503906 -6.945312 7.71875 -7.460938 7.71875 -8.140625 C 7.71875 -8.796875 7.5 -9.300781 7.0625 -9.65625 C 6.632812 -10.019531 6.035156 -10.203125 5.265625 -10.203125 Z M 2.5625 -10.203125"></path></g></g></g><g fill-opacity="1" fill="#f02e2c"><g transform="translate(236.641983, 314.324196)"><g><path d="M 7.03125 -5.09375 L 9.234375 0 L 7.71875 0 L 5.6875 -4.828125 L 2.5625 -4.828125 L 2.5625 0 L 1.1875 0 L 1.1875 -11.453125 L 5.453125 -11.453125 C 6.554688 -11.453125 7.4375 -11.179688 8.09375 -10.640625 C 8.75 -10.097656 9.078125 -9.28125 9.078125 -8.1875 C 9.078125 -7.414062 8.894531 -6.765625 8.53125 -6.234375 C 8.175781 -5.703125 7.675781 -5.320312 7.03125 -5.09375 Z M 2.5625 -6.0625 L 5.265625 -6.0625 C 6.054688 -6.0625 6.660156 -6.238281 7.078125 -6.59375 C 7.503906 -6.945312 7.71875 -7.460938 7.71875 -8.140625 C 7.71875 -8.796875 7.5 -9.300781 7.0625 -9.65625 C 6.632812 -10.019531 6.035156 -10.203125 5.265625 -10.203125 L 2.5625 -10.203125 Z M 2.5625 -6.0625"></path></g></g></g><g fill-opacity="1" fill="#f02e2c"><g transform="translate(250.304297, 314.324196)"><g><path d="M 8.59375 0 L 1.1875 0 L 1.1875 -11.453125 L 8.59375 -11.453125 L 8.59375 -10.203125 L 2.5625 -10.203125 L 2.5625 -6.359375 L 7.890625 -6.359375 L 7.890625 -5.140625 L 2.5625 -5.140625 L 2.5625 -1.25 L 8.59375 -1.25 Z M 8.59375 0"></path></g></g></g><g fill-opacity="1" fill="#f02e2c"><g transform="translate(263.30611, 314.324196)"><g><path d="M 5.46875 0 L 4.078125 0 L 4.078125 -10.203125 L 0.203125 -10.203125 L 0.203125 -11.453125 L 9.359375 -11.453125 L 9.359375 -10.203125 L 5.46875 -10.203125 Z M 5.46875 0"></path></g></g></g><g fill-opacity="1" fill="#f02e2c"><g transform="translate(276.623161, 314.324196)"><g><path d="M 5.375 -12.328125 L 4.203125 -12.328125 L 5.96875 -14.609375 L 7.515625 -14.609375 Z M 8.59375 0 L 1.1875 0 L 1.1875 -11.453125 L 8.59375 -11.453125 L 8.59375 -10.203125 L 2.5625 -10.203125 L 2.5625 -6.359375 L 7.890625 -6.359375 L 7.890625 -5.140625 L 2.5625 -5.140625 L 2.5625 -1.25 L 8.59375 -1.25 Z M 8.59375 0"></path></g></g></g></svg>